{
  "accessors": [
    {
      "bufferView": 1,
      "componentType": 5126,
      "count": 1834,
      "max": [
        -49.0,
        -32.011199951171875,
        -55.735198974609375
      ],
      "min": [
        -63.0,
        -38.13029861450195,
        -58.699100494384766
      ],
      "type": "VEC3"
    },
    {
      "bufferView": 1,
      "byteOffset": 22008,
      "componentType": 5126,
      "count": 1834,
      "max": [
        1.0,
        0.9969205260276794,
        0.7882364392280579
      ],
      "min": [
        -1.0,
        -0.634053647518158,
        -0.9514610171318054
      ],
      "type": "VEC3"
    },
    {
      "bufferView": 0,
      "componentType": 5125,
      "count": 7533,
      "type": "SCALAR"
    },
    {
      "bufferView": 1,
      "byteOffset": 44016,
      "componentType": 5126,
      "count": 1149,
      "max": [
        -50.05339813232422,
        -33.38119888305664,
        -58.438499450683594
      ],
      "min": [
        -62.09360122680664,
        -37.660400390625,
        -59.40999984741211
      ],
      "type": "VEC3"
    },
    {
      "bufferView": 1,
      "byteOffset": 57804,
      "componentType": 5126,
      "count": 1149,
      "max": [
        0.8944551944732666,
        1.0,
        0.0
      ],
      "min": [
        -0.8944477438926697,
        -0.8722218871116638,
        -1.0
      ],
      "type": "VEC3"
    },
    {
      "bufferView": 0,
      "byteOffset": 30132,
      "componentType": 5125,
      "count": 5157,
      "type": "SCALAR"
    },
    {
      "bufferView": 1,
      "byteOffset": 71592,
      "componentType": 5126,
      "count": 3936,
      "max": [
        -46.0,
        -0.0,
        -38.0
      ],
      "min": [
        -66.0,
        -50.0,
        -58.57600021362305
      ],
      "type": "VEC3"
    },
    {
      "bufferView": 1,
      "byteOffset": 118824,
      "componentType": 5126,
      "count": 3936,
      "max": [
        0.9998667240142822,
        1.0,
        1.0
      ],
      "min": [
        -0.9998667240142822,
        -1.0,
        -0.999999463558197
      ],
      "type": "VEC3"
    },
    {
      "bufferView": 0,
      "byteOffset": 50760,
      "componentType": 5125,
      "count": 16590,
      "type": "SCALAR"
    }
  ],
  "asset": {
    "extras": {
      "author": "GoudronViande24 (https://sketchfab.com/GoudronViande24)",
      "license": "CC-BY-SA-4.0 (http://creativecommons.org/licenses/by-sa/4.0/)",
      "source": "https://sketchfab.com/3d-models/beanos-3c17ab0038d9430a9b6f5607e09f2986",
      "title": "Beanos"
    },
    "generator": "Sketchfab-12.66.0",
    "version": "2.0"
  },
  "bufferViews": [
    {
      "buffer": 0,
      "byteLength": 117120,
      "name": "floatBufferViews",
      "target": 34963
    },
    {
      "buffer": 0,
      "byteLength": 166056,
      "byteOffset": 117120,
      "byteStride": 12,
      "name": "floatBufferViews",
      "target": 34962
    }
  ],
  "buffers": [
    {
      "byteLength": 283176,
      "uri": "scene.bin"
    }
  ],
  "materials": [
    {
      "doubleSided": true,
      "name": "color_16448250",
      "pbrMetallicRoughness": {
        "baseColorFactor": [
          0.980392,
          0.980392,
          0.980392,
          1.0
        ],
        "metallicFactor": 0.0
      }
    },
    {
      "doubleSided": true,
      "name": "color_2829873",
      "pbrMetallicRoughness": {
        "baseColorFactor": [
          0.168627,
          0.180392,
          0.192157,
          1.0
        ],
        "metallicFactor": 0.0
      }
    },
    {
      "doubleSided": true,
      "name": "color_8273816",
      "pbrMetallicRoughness": {
        "baseColorFactor": [
          0.494118,
          0.247059,
          0.596078,
          1.0
        ],
        "metallicFactor": 0.0
      }
    }
  ],
  "meshes": [
    {
      "name": "Object_0",
      "primitives": [
        {
          "attributes": {
            "NORMAL": 1,
            "POSITION": 0
          },
          "indices": 2,
          "material": 0,
          "mode": 4
        }
      ]
    },
    {
      "name": "Object_1",
      "primitives": [
        {
          "attributes": {
            "NORMAL": 4,
            "POSITION": 3
          },
          "indices": 5,
          "material": 1,
          "mode": 4
        }
      ]
    },
    {
      "name": "Object_2",
      "primitives": [
        {
          "attributes": {
            "NORMAL": 7,
            "POSITION": 6
          },
          "indices": 8,
          "material": 2,
          "mode": 4
        }
      ]
    }
  ],
  "nodes": [
    {
      "children": [
        1
      ],
      "matrix": [
        1.0,
        -6.323622935307098e-16,
        5.794773679524138e-16,
        0.0,
        -6.292681880535082e-16,
        -0.9999858140945435,
        -0.005324019119143708,
        0.0,
        5.828358535882772e-16,
        0.005324019119143708,
        -0.9999858140945435,
        0.0,
        1.4210854715202004e-14,
        -73.44535064697266,
        -23.837411880493182,
        1.0
      ],
      "name": "Sketchfab_model"
    },
    {
      "children": [
        2,
        3,
        4
      ],
      "name": "tinker.obj.cleaner.materialmerger.gles"
    },
    {
      "mesh": 0,
      "name": "Object_2"
    },
    {
      "mesh": 1,
      "name": "Object_3"
    },
    {
      "mesh": 2,
      "name": "Object_4"
    }
  ],
  "scene": 0,
  "scenes": [
    {
      "name": "Sketchfab_Scene",
      "nodes": [
        0
      ]
    }
  ]
}
